<svg width="20" height="20" viewBox="0 0 20 20" fill="none" xmlns="http://www.w3.org/2000/svg">
<path d="M12.9322 17.3593C7.49756 15.5282 4.58488 12.2031 2.7299 7.51555C2.26617 6.57805 2.26615 4.23429 5.04861 2.73428C5.74421 2.35928 6.43984 2.35928 7.36732 3.29679C8.29481 4.2343 7.36732 3.29679 8.29481 4.23429C9.36151 5.3125 9.248 6.25 9.0625 6.71875C8.87701 7.28125 8.01656 7.7968 8.29481 8.92181C8.57305 10.0468 9.96428 11.5468 11.0773 11.7343C12.1902 11.9218 12.8175 11.2188 13.2813 10.9375C13.745 10.6562 14.5119 10.5185 15.2509 11.2656C15.625 11.6437 15.7147 11.7343 16.6422 12.6718C17.5697 13.6093 17.6745 14.3702 17.2914 15.0156C16.0938 17.4504 14.0788 17.7457 12.9322 17.3593Z" stroke="white" stroke-width="1.5" stroke-linecap="round" stroke-linejoin="round"/>
</svg>
