<svg width="32" height="32" viewBox="0 0 32 32" fill="none" xmlns="http://www.w3.org/2000/svg">
<path d="M10.8574 3.22656L13.1182 5.37431C13.966 6.16559 14.4182 7.23948 14.4182 8.4264C14.4182 9.5568 14.8703 10.6307 15.6616 11.422L15.9442 11.7046L18.5441 3.28308" fill="#181818"/>
<path d="M3.16797 10.7442L6.27657 10.6311C7.40697 10.5746 8.53736 11.0268 9.32864 11.818C10.1199 12.6093 11.1938 13.005 12.3242 13.005H12.7198L8.53737 5.26172" fill="#181818"/>
<path d="M3.16956 21.4818L5.2608 19.221C6.05208 18.3732 7.12596 17.8645 8.25636 17.8645C9.38676 17.8645 10.4041 17.3558 11.1954 16.5645L11.478 16.2819L3 13.8516" fill="#181818"/>
<path d="M10.8591 28.9443L10.6896 25.8357C10.6331 24.7053 11.0287 23.5749 11.82 22.7271C12.5548 21.9359 13.0069 20.8055 12.9504 19.7316V19.3359L5.26367 23.688" fill="#181818"/>
<path d="M21.595 28.7168L19.2777 26.682C18.4299 25.9473 17.9212 24.8734 17.8647 23.6865C17.8082 22.5561 17.2995 21.5387 16.5082 20.7474L16.2256 20.4648L13.9648 28.9994" fill="#181818"/>
<path d="M28.9423 20.8606L25.8337 21.0867C24.7033 21.1997 23.5729 20.8041 22.7251 20.0128C21.8773 19.278 20.8034 18.8824 19.673 18.9389H19.2773L23.7989 26.5126" fill="#181818"/>
<path d="M28.436 10.1797L26.4578 12.5535C25.723 13.4013 24.6492 13.9665 23.5188 14.023C22.3884 14.0796 21.371 14.5882 20.6362 15.436L20.4102 15.7186L29.0012 17.7534" fill="#181818"/>
<path d="M20.4632 3L20.7458 6.1086C20.8589 7.239 20.5198 8.3694 19.7285 9.27372C18.9937 10.1215 18.6546 11.1954 18.7111 12.3258L18.7676 12.7214L26.2283 8.03028" fill="#181818"/>
</svg>
