<svg width="32" height="32" viewBox="0 0 32 32" fill="none" xmlns="http://www.w3.org/2000/svg">
<circle cx="16.0007" cy="6.92064" r="3.63158" fill="#181818"/>
<circle cx="16.0007" cy="15.9988" r="3.63158" fill="#181818"/>
<circle cx="8.13158" cy="11.7644" r="3.63158" fill="#181818"/>
<circle cx="8.13158" cy="20.237" r="3.63158" fill="#181818"/>
<circle cx="23.8679" cy="11.7644" r="3.63158" fill="#181818"/>
<circle cx="16.0007" cy="25.0769" r="3.63158" fill="#181818"/>
<path d="M22.8429 21.5991V18.8073H24.1821C24.3233 18.8073 24.4595 18.8414 24.5906 18.9095C24.7243 18.975 24.834 19.0734 24.9198 19.2045C25.008 19.3331 25.0522 19.492 25.0522 19.6812C25.0522 19.8703 25.0068 20.0342 24.916 20.1729C24.8277 20.3091 24.7142 20.4138 24.5755 20.4869C24.4393 20.5601 24.2981 20.5966 24.1518 20.5966H23.1153V20.2146H24.0232C24.1518 20.2146 24.2666 20.1692 24.3675 20.0784C24.4709 19.9851 24.5226 19.8527 24.5226 19.6812C24.5226 19.5046 24.4709 19.3785 24.3675 19.3029C24.2666 19.2272 24.1556 19.1894 24.0346 19.1894H23.3309V21.5991H22.8429ZM24.4696 20.3016L25.1656 21.5991H24.6209L23.9438 20.3016H24.4696ZM23.8681 23.2636C23.4495 23.2636 23.0573 23.1854 22.6916 23.029C22.326 22.8727 22.0044 22.6558 21.727 22.3784C21.4496 22.101 21.2327 21.7794 21.0763 21.4137C20.92 21.0481 20.8418 20.6559 20.8418 20.2373C20.8418 19.8186 20.92 19.4265 21.0763 19.0608C21.2327 18.6951 21.4496 18.3735 21.727 18.0961C22.0044 17.8187 22.326 17.6018 22.6916 17.4455C23.0573 17.2891 23.4495 17.2109 23.8681 17.2109C24.2868 17.2109 24.6789 17.2891 25.0446 17.4455C25.4103 17.6018 25.7318 17.8187 26.0092 18.0961C26.2866 18.3735 26.5035 18.6951 26.6599 19.0608C26.8162 19.4265 26.8944 19.8186 26.8944 20.2373C26.8944 20.6559 26.8162 21.0481 26.6599 21.4137C26.5035 21.7794 26.2866 22.101 26.0092 22.3784C25.7318 22.6558 25.4103 22.8727 25.0446 23.029C24.6789 23.1854 24.2868 23.2636 23.8681 23.2636ZM23.8681 22.6999C24.3221 22.6999 24.7344 22.589 25.1051 22.367C25.4784 22.1451 25.776 21.8488 25.9979 21.478C26.2198 21.1048 26.3308 20.6912 26.3308 20.2373C26.3308 19.7833 26.2198 19.371 25.9979 19.0002C25.776 18.627 25.4784 18.3294 25.1051 18.1075C24.7344 17.8856 24.3221 17.7746 23.8681 17.7746C23.4142 17.7746 23.0006 17.8856 22.6273 18.1075C22.2566 18.3294 21.9603 18.627 21.7383 19.0002C21.5164 19.371 21.4054 19.7833 21.4054 20.2373C21.4054 20.6912 21.5164 21.1048 21.7383 21.478C21.9603 21.8488 22.2566 22.1451 22.6273 22.367C23.0006 22.589 23.4142 22.6999 23.8681 22.6999Z" fill="#181818"/>
</svg>
