<svg width="20" height="20" viewBox="0 0 20 20" fill="none" xmlns="http://www.w3.org/2000/svg">
<path fill-rule="evenodd" clip-rule="evenodd" d="M10 1.66699C5.39763 1.66699 1.66667 5.39795 1.66667 10.0003C1.66667 14.6027 5.39763 18.3337 10 18.3337C14.6024 18.3337 18.3333 14.6027 18.3333 10.0003C18.3333 5.39795 14.6024 1.66699 10 1.66699ZM13.145 8.44472C13.4364 8.08851 13.3839 7.56349 13.0277 7.27205C12.6715 6.98061 12.1465 7.03311 11.855 7.38932L8.68814 11.26L7.67259 10.2444C7.34716 9.91899 6.81952 9.91899 6.49408 10.2444C6.16865 10.5699 6.16865 11.0975 6.49408 11.4229L8.16075 13.0896C8.32723 13.2561 8.55637 13.3444 8.79152 13.3326C9.02667 13.3209 9.24588 13.2103 9.39497 13.028L13.145 8.44472Z" fill="#34C759"/>
</svg>
