<svg width="40" height="40" viewBox="0 0 40 40" fill="none" xmlns="http://www.w3.org/2000/svg">
<g clip-path="url(#clip0_5_2391)">
<path d="M19.9999 8.48475C22.1756 8.48475 23.9393 6.72102 23.9393 4.54535C23.9393 2.36968 22.1756 0.605957 19.9999 0.605957C17.8243 0.605957 16.0605 2.36968 16.0605 4.54535C16.0605 6.72102 17.8243 8.48475 19.9999 8.48475Z" fill="#666666"/>
<path d="M17.0304 21.7577C17.0304 20.9092 17.0304 15.3335 17.0304 14.485C17.0304 12.7274 18.6061 11.2729 20.4243 11.5153C21.2728 11.6365 21.9395 12.0608 22.4243 12.7274C25.5152 12.7274 25.2728 12.7274 25.8182 12.7274C25.2728 10.9698 24.0001 9.57591 22.3031 8.84863C21.6364 9.21227 20.8485 9.39409 20.0001 9.39409C19.2122 9.39409 18.4243 9.21227 17.7576 8.84863C15.5152 9.87894 13.9395 12.1214 13.9395 14.6668C13.9395 14.7274 13.9395 21.6365 13.9395 21.6971C14.4243 21.8183 14.6061 21.7577 17.0304 21.7577ZM26.0607 25.3335V20.1214C26.0607 19.2729 25.394 18.6062 24.5455 18.6062C23.697 18.6062 23.0304 19.2729 23.0304 20.1214V25.4547C23.0304 27.2123 21.4546 28.6668 19.6364 28.4244C18.7879 28.3032 18.1213 27.8789 17.6364 27.2123C14.2425 27.2123 14.8485 27.2123 14.2425 27.2123C14.7879 28.9698 16.1213 30.4244 17.7576 31.0911C18.4243 30.7274 19.2122 30.5456 20.0607 30.5456C20.8485 30.5456 21.6364 30.7274 22.3031 31.0911C24.4849 30.1214 26.0607 27.8789 26.0607 25.3335Z" fill="#666666"/>
<path d="M19.9999 39.3939C22.1756 39.3939 23.9393 37.6302 23.9393 35.4545C23.9393 33.2789 22.1756 31.5151 19.9999 31.5151C17.8243 31.5151 16.0605 33.2789 16.0605 35.4545C16.0605 37.6302 17.8243 39.3939 19.9999 39.3939Z" fill="#666666"/>
<path d="M31.0912 17.7576C30.1215 15.5152 27.8791 13.9395 25.3336 13.9395C24.5457 13.9395 20.9094 13.9395 18.3033 13.9395C18.1821 14.3637 18.2427 14.5455 18.2427 16.9698C18.97 16.9698 17.2124 16.9698 25.5154 16.9698C27.273 16.9698 28.7275 18.5455 28.4851 20.3637C28.3639 21.2122 27.9397 21.8788 27.273 22.3637C27.273 25.5758 27.273 25.1516 27.273 25.7576C28.97 25.2728 30.4245 24.0001 31.1518 22.2425C30.7881 21.5758 30.6063 20.7879 30.6063 19.9395C30.5457 19.2122 30.7275 18.4243 31.0912 17.7576Z" fill="#666666"/>
<path d="M35.455 23.9393C37.6307 23.9393 39.3944 22.1756 39.3944 19.9999C39.3944 17.8243 37.6307 16.0605 35.455 16.0605C33.2794 16.0605 31.5156 17.8243 31.5156 19.9999C31.5156 22.1756 33.2794 23.9393 35.455 23.9393Z" fill="#666666"/>
<path d="M8.90924 22.2422C9.87894 24.4847 12.1214 25.9998 14.6668 25.9998C15.1517 25.9998 15.4547 25.9998 15.6971 25.9998C15.8183 25.9998 15.9395 25.9998 16.0001 25.9998C16.0608 25.9998 16.1214 25.9998 16.1214 25.9998C16.788 25.9998 18.3032 25.9998 21.6971 25.9998C21.8183 25.515 21.7577 25.3938 21.7577 22.9695C19.0305 22.9695 17.2123 22.9695 14.485 22.9695C12.7274 22.9695 11.2729 21.3938 11.5153 19.5756C11.6365 18.7271 12.0608 18.0604 12.7274 17.5756C12.7274 14.4241 12.7274 14.7877 12.7274 14.1816C11.0305 14.7271 9.57591 15.9998 8.84863 17.6968C9.21227 18.3635 9.39409 19.1513 9.39409 19.9998C9.45469 20.7877 9.27287 21.5756 8.90924 22.2422Z" fill="#666666"/>
<path d="M4.54584 23.9393C6.72151 23.9393 8.48523 22.1756 8.48523 19.9999C8.48523 17.8243 6.72151 16.0605 4.54584 16.0605C2.37017 16.0605 0.606445 17.8243 0.606445 19.9999C0.606445 22.1756 2.37017 23.9393 4.54584 23.9393Z" fill="#666666"/>
</g>
<defs>
<clipPath id="clip0_5_2391">
<rect width="40" height="40" fill="white"/>
</clipPath>
</defs>
</svg>
