<svg width="40" height="40" viewBox="0 0 40 40" fill="none" xmlns="http://www.w3.org/2000/svg">
<path d="M8.26513 23.2822C8.26736 21.0116 8.9261 18.79 10.162 16.8852C11.3979 14.9803 13.1582 13.4734 15.2308 12.5461C15.1683 10.3826 14.0303 8.18784 12.0044 7.54382C11.4666 7.28121 9.68454 8.90069 9.81586 11.752C9.31799 11.4229 8.75488 11.2054 8.1651 11.1142C8.07119 11.1069 7.97681 11.1199 7.88836 11.1523C7.7999 11.1847 7.71942 11.2356 7.65236 11.3018C7.57733 11.3768 5.88905 13.1589 6.90201 16.1977C6.10354 15.9185 5.24115 15.8773 4.41965 16.0789C4.32974 16.1069 4.24718 16.1545 4.17796 16.2183C4.10874 16.2821 4.0546 16.3605 4.01946 16.4479C3.98196 16.5417 3.15656 18.7677 5.13248 21.125C4.26688 21.15 3.42939 21.4379 2.73137 21.9504C2.6585 22.0089 2.59983 22.0832 2.55976 22.1677C2.5197 22.2522 2.49927 22.3446 2.50002 22.4381C2.57543 23.2663 2.86536 24.0605 3.34123 24.7425C3.81711 25.4245 4.46249 25.9708 5.21377 26.3274C4.61502 26.583 4.08563 26.9774 3.66929 27.4779C3.61329 27.5531 3.57517 27.64 3.55783 27.7321C3.5405 27.8242 3.54441 27.919 3.56926 28.0094C3.59426 28.1157 4.27584 30.548 7.52107 31.2108C7.20787 31.4981 6.94568 31.8364 6.74568 32.2113C6.70553 32.2964 6.68471 32.3893 6.68471 32.4833C6.68471 32.5774 6.70553 32.6703 6.74568 32.7553C8.17135 35.5003 12.6672 35.8504 14.9869 33.9058C12.9769 32.9515 11.2786 31.4469 10.0889 29.5666C8.89916 27.6863 8.2668 25.5073 8.26513 23.2822ZM34.8022 26.3274C37.4972 24.8204 37.8161 22.2443 37.2846 21.9504C36.5866 21.4379 35.7491 21.15 34.8835 21.125C36.8594 18.7677 36.0341 16.5417 35.9965 16.4479C35.9614 16.3605 35.9073 16.2821 35.838 16.2183C35.7688 16.1545 35.6863 16.1069 35.5963 16.0789C34.7748 15.8773 33.9125 15.9185 33.114 16.1977C34.1269 13.1589 32.4387 11.3768 32.3636 11.3018C32.2966 11.2356 32.2161 11.1847 32.1276 11.1523C32.0392 11.1199 31.9448 11.1069 31.8509 11.1142C31.2611 11.2054 30.698 11.4229 30.2001 11.752C30.3252 8.88816 28.5556 7.29995 28.0116 7.54385C27.9053 7.5751 25.4542 8.30042 24.8665 11.6145C24.8136 11.9142 24.7801 12.2171 24.7664 12.5211C26.8313 13.4297 28.5912 14.9131 29.8361 16.7944C31.081 18.6757 31.7584 20.8755 31.7874 23.1312C31.8164 25.387 31.1958 27.6034 29.9997 29.5161C28.8035 31.4289 27.0824 32.957 25.0415 33.9184C27.3488 35.8255 31.8259 35.5191 33.2703 32.7554C33.3104 32.6703 33.3313 32.5774 33.3313 32.4834C33.3313 32.3893 33.3104 32.2964 33.2703 32.2114C33.0703 31.8364 32.8081 31.4981 32.4949 31.2109C35.7401 30.5481 36.4217 28.1157 36.4467 28.0094C36.4716 27.9191 36.4755 27.8242 36.4581 27.7321C36.4408 27.64 36.4027 27.5531 36.3467 27.478C35.9304 26.9774 35.401 26.583 34.8022 26.3274Z" fill="#666666"/>
<path d="M30.5377 23.2819C30.5377 21.203 29.9213 19.1708 28.7663 17.4423C27.6114 15.7137 25.9698 14.3665 24.0491 13.5709C22.1285 12.7754 20.015 12.5672 17.9761 12.9728C15.9371 13.3784 14.0642 14.3795 12.5942 15.8494C11.1242 17.3194 10.1232 19.1923 9.7176 21.2313C9.31203 23.2702 9.52018 25.3837 10.3157 27.3043C11.1113 29.225 12.4585 30.8666 14.1871 32.0215C15.9156 33.1765 17.9478 33.793 20.0267 33.7929C22.8135 33.79 25.4853 32.6816 27.4559 30.7111C29.4264 28.7405 30.5348 26.0687 30.5377 23.2819ZM25.6605 23.5883L24.2286 24.8389C24.1627 24.8998 24.1136 24.9767 24.0862 25.0622C24.0588 25.1476 24.054 25.2387 24.0723 25.3266L24.4975 27.1774C24.5682 27.5102 24.5409 27.8562 24.4189 28.1738C24.2969 28.4913 24.0855 28.7666 23.8102 28.9665C23.535 29.1663 23.2077 29.2821 22.868 29.2997C22.5283 29.3173 22.1908 29.2361 21.8963 29.0658L20.2643 28.0904C20.1867 28.0443 20.0982 28.02 20.0079 28.02C19.9177 28.02 19.8292 28.0443 19.7516 28.0904C19.1888 28.378 17.8945 29.391 17.2254 29.3159C16.9634 29.3135 16.7051 29.2527 16.4695 29.138C16.2339 29.0233 16.0268 28.8575 15.8633 28.6526C15.6998 28.4478 15.5841 28.2091 15.5244 27.954C15.4647 27.6988 15.4627 27.4335 15.5184 27.1774L15.9436 25.3266C15.9619 25.2387 15.9571 25.1476 15.9297 25.0622C15.9023 24.9767 15.8532 24.8998 15.7873 24.8389L14.3554 23.5883C14.1015 23.3611 13.9191 23.065 13.8305 22.7361C13.7418 22.4071 13.7507 22.0595 13.8561 21.7355C13.9614 21.4115 14.1587 21.1251 14.4238 20.9112C14.689 20.6973 15.0106 20.5651 15.3496 20.5306L17.2379 20.3556C17.3278 20.3487 17.4139 20.3169 17.4868 20.2639C17.5596 20.2109 17.6163 20.1388 17.6506 20.0555L18.401 18.3109C18.535 17.9956 18.7588 17.7267 19.0446 17.5377C19.3303 17.3487 19.6654 17.2479 20.008 17.2479C20.3506 17.2479 20.6856 17.3487 20.9713 17.5377C21.2571 17.7267 21.4809 17.9956 21.6149 18.3109L22.3653 20.0554C22.3995 20.1388 22.4563 20.2109 22.5291 20.2639C22.602 20.3169 22.6881 20.3486 22.7779 20.3556L24.6726 20.5306C25.0131 20.5623 25.3369 20.6932 25.6038 20.9071C25.8707 21.121 26.069 21.4085 26.1741 21.7339C26.2793 22.0594 26.2866 22.4085 26.1954 22.7381C26.1041 23.0677 25.9181 23.3633 25.6605 23.5883ZM17.0503 10.7387C17.0992 10.8492 17.1788 10.9434 17.2797 11.0099C17.3806 11.0764 17.4985 11.1125 17.6193 11.1139H22.3965C22.5174 11.1125 22.6353 11.0764 22.7362 11.0099C22.837 10.9434 22.9167 10.8492 22.9655 10.7387L24.585 7.06828C24.6329 6.95606 24.6471 6.8323 24.6258 6.71214C24.6045 6.59198 24.5486 6.48063 24.4651 6.39173C24.3815 6.30283 24.2738 6.24022 24.1551 6.21156C24.0365 6.18291 23.9121 6.18945 23.7972 6.23039L22.1776 6.81193L20.4581 5.04863C20.3376 4.93135 20.1761 4.86572 20.0079 4.86572C19.8398 4.86572 19.6783 4.93135 19.5577 5.04863L17.8382 6.81193L16.2187 6.23039C16.1037 6.18944 15.9793 6.1829 15.8607 6.21156C15.7421 6.24021 15.6344 6.30282 15.5508 6.39173C15.4672 6.48063 15.4113 6.59197 15.39 6.71213C15.3687 6.83229 15.3829 6.95606 15.4308 7.06828L17.0503 10.7387Z" fill="#666666"/>
<path d="M24.5536 21.7751L22.6652 21.6C22.3505 21.574 22.049 21.4624 21.7933 21.2772C21.5375 21.092 21.3374 20.8404 21.2145 20.5495L20.4642 18.805C20.4271 18.7143 20.3639 18.6368 20.2826 18.5822C20.2013 18.5277 20.1056 18.4985 20.0077 18.4985C19.9098 18.4985 19.8141 18.5277 19.7329 18.5822C19.6516 18.6368 19.5884 18.7143 19.5513 18.805L18.8009 20.5495C18.6781 20.8404 18.478 21.092 18.2222 21.2772C17.9665 21.4624 17.6649 21.574 17.3503 21.6L15.4619 21.7751C15.364 21.7832 15.2707 21.8202 15.1939 21.8814C15.1171 21.9426 15.0602 22.0253 15.0305 22.119C14.9994 22.2109 14.9966 22.31 15.0222 22.4035C15.0478 22.4971 15.1008 22.5809 15.1743 22.6442L16.6062 23.901C16.8439 24.1078 17.0211 24.3752 17.1191 24.6746C17.2171 24.9741 17.2321 25.2945 17.1627 25.6018L16.7375 27.4526C16.7163 27.5479 16.7235 27.6474 16.7581 27.7387C16.7928 27.83 16.8535 27.9091 16.9326 27.9663C17.0118 28.0235 17.1059 28.0563 17.2035 28.0605C17.3011 28.0648 17.3977 28.0404 17.4816 27.9904L19.1136 27.0212C19.3835 26.8586 19.6926 26.7726 20.0077 26.7726C20.3228 26.7726 20.632 26.8586 20.9019 27.0212L22.5339 27.9904C22.6177 28.0404 22.7144 28.0648 22.812 28.0606C22.9095 28.0563 23.0037 28.0235 23.0828 27.9663C23.162 27.9091 23.2226 27.83 23.2573 27.7387C23.292 27.6474 23.2992 27.5479 23.278 27.4526L22.8528 25.6018C22.7833 25.2945 22.7984 24.9741 22.8964 24.6746C22.9943 24.3752 23.1716 24.1078 23.4093 23.901L24.8412 22.6442C24.9147 22.5809 24.9676 22.4971 24.9933 22.4035C25.0189 22.31 25.016 22.2109 24.985 22.119C24.9553 22.0253 24.8984 21.9426 24.8216 21.8814C24.7448 21.8202 24.6515 21.7832 24.5536 21.7751Z" fill="#666666"/>
</svg>
