<svg width="24" height="24" viewBox="0 0 24 24" fill="none" xmlns="http://www.w3.org/2000/svg">
<path d="M12.0142 1.99902C6.49116 1.99902 2.01416 6.47602 2.01416 11.999C2.01416 16.814 5.45917 20.888 10.0152 21.804L10.0142 14.999H8.01416V11.999H10.0142V8.99902C10.0252 7.36502 11.3152 6.01802 13.0142 5.99902H16.0142V8.99902C16.0142 8.99902 14.3102 8.99902 14.0142 8.99902C13.4952 8.99802 13.0142 9.42902 13.0142 9.99902V11.999H16.0142L15.0142 14.999H13.0142L13.0212 21.961C18.0532 21.439 22.0142 17.169 22.0142 11.999C22.0142 6.47602 17.5372 1.99902 12.0142 1.99902Z" fill="white"/>
</svg>
