<svg width="62" height="62" viewBox="0 0 62 62" fill="none" xmlns="http://www.w3.org/2000/svg">
<path d="M45.3453 16.4838C41.3187 18.6745 37.8957 21.8745 34.0112 24.3036C30.2027 26.6819 26.6529 29.5522 23.1994 32.382C16.1961 38.1073 9.80132 44.8317 5.48574 52.8138C4.9127 53.8736 6.31235 55.0248 7.18459 54.1221C13.3512 47.6969 19.6851 41.4442 26.1255 35.308C29.2595 32.3126 32.4374 29.3561 35.6593 26.4385C39.0671 23.3603 42.977 20.8602 46.3392 17.7719C47.039 17.1228 46.1414 16.0477 45.3453 16.4838Z" fill="white"/>
<path d="M55.9957 8.31427C55.9912 8.10716 55.9402 7.90372 55.8463 7.71905C55.7525 7.53437 55.6182 7.37321 55.4536 7.24752C55.2889 7.12183 55.098 7.03484 54.8951 6.99301C54.6923 6.95118 54.4826 6.95559 54.2816 7.0059C50.0725 7.6753 45.7722 7.98464 41.7 9.29808C41.4559 9.36533 41.2485 9.52679 41.1234 9.74696C40.9984 9.96712 40.9659 10.2279 41.0331 10.4721C41.1004 10.7162 41.2618 10.9236 41.482 11.0486C41.7022 11.1737 41.963 11.2062 42.2071 11.1389C45.8736 10.363 49.5806 10.2667 53.2775 9.84577C53.2775 11.2353 53.2775 12.6298 53.2065 14.0244C53.1406 15.9261 52.7501 17.843 52.9682 19.7346C53.0747 20.6271 54.4337 21.3168 54.9003 20.2417C56.4825 16.702 55.9957 12.1278 55.9957 8.31427Z" fill="white"/>
</svg>
