<svg width="41" height="40" viewBox="0 0 41 40" fill="none" xmlns="http://www.w3.org/2000/svg">
<rect x="0.5" width="40" height="40" rx="20" fill="white"/>
<path d="M19.7966 11.9009C20.0382 11.2479 20.9618 11.2479 21.2034 11.9009L23.0812 16.9757C23.1572 17.181 23.319 17.3428 23.5243 17.4188L28.5991 19.2966C29.2521 19.5382 29.2521 20.4618 28.5991 20.7034L23.5243 22.5812C23.319 22.6572 23.1572 22.819 23.0812 23.0243L21.2034 28.0991C20.9618 28.7521 20.0382 28.7521 19.7966 28.0991L17.9188 23.0243C17.8428 22.819 17.681 22.6572 17.4757 22.5812L12.4009 20.7034C11.7479 20.4618 11.7479 19.5382 12.4009 19.2966L17.4757 17.4188C17.681 17.3428 17.8428 17.181 17.9188 16.9757L19.7966 11.9009Z" fill="#181818"/>
</svg>
