<svg width="40" height="40" viewBox="0 0 40 40" fill="none" xmlns="http://www.w3.org/2000/svg">
<g clip-path="url(#clip0_5_2370)">
<path d="M38.5847 25.7561L36.0326 25.14C35.9847 25.02 35.9367 24.9001 35.8806 24.78L37.2486 22.54C37.4326 22.228 37.3927 21.828 37.1287 21.5641L34.8726 19.2761C34.6087 19.004 34.2007 18.9561 33.8806 19.1561L31.6486 20.5481C31.5367 20.5001 31.4166 20.4521 31.2966 20.404L30.7046 17.8521C30.6166 17.4841 30.2966 17.228 29.9287 17.228H26.7207C26.3527 17.228 26.0326 17.4841 25.9447 17.8521L25.3367 20.436C25.2248 20.4841 25.1126 20.532 25.0007 20.58L22.7927 19.204C22.4726 19.012 22.0646 19.0601 21.8007 19.324L19.5367 21.612C19.2806 21.8681 19.2326 22.2761 19.4248 22.588L20.8007 24.8521C20.7527 24.98 20.6966 25.1001 20.6566 25.22L18.1367 25.828C17.7767 25.9161 17.5207 26.236 17.5207 26.604V29.844C17.5207 30.212 17.7767 30.532 18.1367 30.62L20.6806 31.228C20.7287 31.3561 20.7847 31.4761 20.8408 31.596L19.4726 33.836C19.2806 34.148 19.3287 34.548 19.5847 34.812L21.8486 37.1001C22.1126 37.3721 22.5287 37.42 22.8408 37.22L25.0726 35.828C25.1847 35.8761 25.2966 35.924 25.4165 35.9721L26.0165 38.524C26.0966 38.8921 26.4247 39.148 26.7927 39.148H29.9927C30.3607 39.148 30.6886 38.8921 30.7687 38.524L31.3767 35.94C31.4966 35.8921 31.6087 35.844 31.7206 35.788L33.9286 37.1641C34.2486 37.3641 34.6566 37.3161 34.9206 37.0521L37.1847 34.7641C37.4408 34.5001 37.4886 34.1001 37.2966 33.788L35.9126 31.5161C35.9607 31.396 36.0165 31.2761 36.0646 31.1561L38.5847 30.5481C38.9447 30.4601 39.2007 30.14 39.2007 29.7721V26.532C39.2007 26.1641 38.9447 25.844 38.5847 25.7561ZM28.3607 32.596C25.9527 32.596 23.9927 30.62 23.9927 28.188C23.9927 25.7561 25.9527 23.78 28.3607 23.78C30.7687 23.78 32.7287 25.7561 32.7287 28.188C32.7287 30.62 30.7687 32.596 28.3607 32.596ZM11.0675 27.9907C10.737 27.5469 10.5069 27.0359 10.4022 26.5137C10.3054 26.0306 9.84332 25.7132 9.35157 25.8135C8.86852 25.9103 8.55464 26.3803 8.65141 26.8642C8.71572 27.1855 8.81838 27.5007 8.94241 27.8087C7.18463 27.759 6.05354 26.4127 5.6808 25.3296C5.41573 24.561 5.3948 23.5452 6.20482 23.21C6.65996 23.0216 6.8762 22.4994 6.68786 22.0438C6.49953 21.5878 5.97987 21.372 5.52124 21.5603C4.71864 21.8925 4.16737 22.5067 3.9034 23.2835C3.26516 22.6921 2.84009 21.7892 2.7808 20.7721C2.68751 19.156 3.48269 17.7936 4.9074 17.1275C5.35383 16.9187 5.54652 16.3872 5.33813 15.9408C5.12888 15.4944 4.60049 15.3017 4.15058 15.5101C3.07878 16.0112 2.24436 16.8035 1.70006 17.7705C1.1283 17.1055 0.799805 16.2562 0.799805 15.3514C0.799805 13.8818 1.66648 12.5464 3.01621 11.9461C3.48704 11.7308 3.99537 11.6218 4.52899 11.6218C5.02249 11.6218 5.42183 11.222 5.42183 10.7289C5.42183 9.6778 4.25377 9.75677 3.29174 9.97908C3.11094 8.43528 3.84172 7.10959 5.00419 6.37808C5.81425 5.86879 6.42266 5.86097 7.06278 5.80872C8.08534 5.73248 7.8754 4.44004 7.8754 4.58455C7.8754 2.5277 9.54861 0.854492 11.6055 0.854492C13.4698 0.854492 15.0482 2.2416 15.298 4.08581V9.17998L13.5664 10.1164C12.9449 10.4511 12.1835 10.1297 11.9804 9.46772C11.5798 8.16798 10.0878 7.02877 9.44572 8.13936C9.1981 8.56616 9.34371 9.11241 9.77008 9.36004C10.0125 9.50041 10.1912 9.72493 10.2732 9.99261C10.5295 10.8249 11.139 11.491 11.9446 11.8201C13.6711 12.5278 14.9495 11.2973 15.298 11.2096V19.1134L15.1027 18.8949C13.6475 17.267 11.4259 16.5865 9.30971 17.117C8.83103 17.2369 8.54068 17.7217 8.661 18.2C8.78046 18.6791 9.27309 18.9681 9.74393 18.8487C11.2166 18.4794 12.7599 18.9537 13.7722 20.085L15.298 21.7922V29.2682C13.7722 29.8164 12.0602 29.3271 11.0675 27.9907Z" fill="#666666"/>
<path d="M29.3523 11.948C28.8883 11.732 28.3764 11.62 27.8404 11.62C27.3523 11.62 26.9523 11.22 26.9523 10.732C26.9523 9.67607 28.1123 9.75605 29.0803 9.97998C29.0963 9.83603 29.1203 9.69209 29.1203 9.54003C29.1203 8.25204 28.4643 7.06806 27.3684 6.37998C25.8404 5.42002 24.6562 6.32402 24.4883 4.90811C24.5203 2.30811 22.6963 0.852051 20.7684 0.852051C18.9043 0.852051 17.3203 2.24404 17.0723 4.08408V9.17998L18.8084 10.1161C19.0963 10.2761 19.4404 10.2921 19.7523 10.1641C20.0643 10.0441 20.2963 9.78799 20.3924 9.46807C20.6084 8.77207 21.0723 8.17998 21.7043 7.81201C22.7283 7.22002 23.6244 8.76406 22.6004 9.35605C21.8244 9.81201 22.1523 11.1161 20.4244 11.82C18.8643 12.4601 17.7283 11.5161 17.0723 11.212V19.1161C17.1523 19.0601 19.3844 16.196 23.0643 17.1161C23.4404 17.212 23.6963 17.532 23.7283 17.9001L24.2162 18.204L24.3844 17.4841C24.6482 16.388 25.6084 15.628 26.7203 15.628C27.4883 15.4521 29.8482 15.612 29.9283 15.628C30.5043 15.628 31.0482 15.836 31.4643 16.188C31.5363 15.9161 31.5684 15.636 31.5684 15.348C31.5684 13.8841 30.7043 12.548 29.3523 11.948ZM18.4084 20.4761L19.6004 19.2681C19.2322 19.4841 18.8963 19.7561 18.6004 20.0841L17.0723 21.796V24.556C17.2803 24.428 17.5043 24.332 17.7523 24.2761L18.4723 24.1001L18.0563 23.42C17.4803 22.4761 17.6162 21.2681 18.4084 20.4761Z" fill="#666666"/>
</g>
<defs>
<clipPath id="clip0_5_2370">
<rect width="40" height="40" fill="white"/>
</clipPath>
</defs>
</svg>
