<svg width="40" height="40" viewBox="0 0 40 40" fill="none" xmlns="http://www.w3.org/2000/svg">
<path d="M35.2002 10.5598C34.9602 10.0798 34.6402 9.83977 34.2402 9.75977C34.0802 9.75977 33.8402 9.75977 33.6002 9.91977C32.4002 10.7998 31.6802 15.6798 31.4402 17.1998C28.8802 17.4398 24.9602 21.6798 23.8402 23.3598C23.2802 24.1598 22.8802 25.9998 22.5602 28.7998H21.6002C21.3602 28.7998 21.2002 28.9598 21.2002 29.1998V38.6398C21.2002 38.8798 21.3602 39.0398 21.6002 39.0398H29.4402C29.6802 39.0398 29.8402 38.8798 29.8402 38.6398V29.3598C29.8402 29.1198 29.6802 28.9598 29.4402 28.9598H28.7202C28.9602 28.0798 29.2002 27.5998 29.3602 27.4398C29.7602 26.8798 30.5602 26.3198 31.4402 25.6798C32.5602 24.8798 33.6802 24.0798 34.1602 23.1998C35.2002 20.7198 36.4802 13.0398 35.2002 10.5598ZM29.0402 32.9598H22.0002V29.6798H29.0402V32.9598Z" fill="#666666"/>
<path d="M25.12 31.3602C25.12 32.0002 24.56 32.4802 24 32.4802C23.44 32.4802 22.88 32.0002 22.88 31.3602C22.88 30.7202 23.44 30.2402 24 30.2402C24.56 30.2402 25.12 30.7202 25.12 31.3602ZM17.2 31.3602C17.2 32.0002 16.64 32.4802 16.08 32.4802C15.52 32.4802 14.96 32.0002 14.96 31.3602C14.96 30.7202 15.52 30.2402 16.08 30.2402C16.64 30.2402 17.2 30.7202 17.2 31.3602Z" fill="#666666"/>
<path d="M18.3999 28.9598H17.4399C17.1199 26.1598 16.7199 24.3198 16.1599 23.5198C15.0399 21.7598 11.0399 17.5998 8.55992 17.3598C8.39992 15.8398 7.67992 10.9598 6.39992 10.0798C6.15992 9.8398 5.91992 9.8398 5.75992 9.9198C5.35992 9.9998 5.03992 10.2398 4.79992 10.7198C3.51992 13.1198 4.79992 20.8798 5.91992 23.2798C6.31992 24.1598 7.51992 24.9598 8.63992 25.7598C9.43992 26.3198 10.3199 26.9598 10.7199 27.5198C10.8799 27.7598 11.0399 28.1598 11.3599 29.0398H10.6399C10.3999 29.0398 10.2399 29.1998 10.2399 29.4398V38.8798C10.2399 39.1198 10.3999 39.2798 10.6399 39.2798H18.3999C18.6399 39.2798 18.7999 39.1198 18.7999 38.8798V29.3598C18.7999 29.1198 18.6399 28.9598 18.3999 28.9598ZM17.9999 32.9598H10.9599V29.6798H17.9999V32.9598ZM27.8399 11.5998L25.3599 8.2398C25.2799 8.1598 25.1999 8.0798 25.0399 8.0798H14.2399C14.0799 8.0798 13.9999 8.1598 13.9199 8.2398L11.4399 11.5998C11.3599 11.7598 11.3599 11.9198 11.4399 12.0798L19.2799 22.8798C19.2799 22.8798 19.2799 22.9598 19.3599 22.9598C19.3599 22.9598 19.3599 22.9598 19.4399 22.9598C19.5199 23.0398 19.5999 23.0398 19.6799 23.0398C19.7599 23.0398 19.8399 23.0398 19.9199 22.9598C19.9199 22.9598 19.9199 22.9598 19.9999 22.9598C20.0799 22.9598 20.0799 22.9598 20.0799 22.8798L27.9199 12.0798C27.9199 11.9998 27.9199 11.7598 27.8399 11.5998ZM12.5599 12.2398H16.0799L18.5599 20.4798L12.5599 12.2398ZM16.9599 11.4398L17.7599 8.7998H21.5999L22.3999 11.4398H16.9599ZM20.7199 20.4798L23.1999 12.2398H26.7199L20.7199 20.4798ZM19.6799 3.2798C19.9199 3.2798 20.0799 3.1198 20.0799 2.8798V1.1998C20.0799 0.959805 19.9199 0.799805 19.6799 0.799805C19.4399 0.799805 19.2799 0.959805 19.2799 1.1998V2.8798C19.2799 3.1198 19.4399 3.2798 19.6799 3.2798ZM27.9999 6.7998C28.0799 6.7998 28.2399 6.7998 28.3199 6.7198L29.5199 5.5198C29.6799 5.3598 29.6799 5.1198 29.5199 4.9598C29.3599 4.7998 29.1199 4.7998 28.9599 4.9598L27.7599 6.1598C27.5999 6.3198 27.5999 6.5598 27.7599 6.7198C27.7599 6.7198 27.9199 6.7998 27.9999 6.7998ZM11.0399 6.6398C11.1199 6.7198 11.1999 6.7198 11.3599 6.7198C11.4399 6.7198 11.5999 6.7198 11.6799 6.6398C11.8399 6.4798 11.8399 6.2398 11.6799 6.0798L10.3999 4.8798C10.2399 4.7198 9.99992 4.7198 9.83992 4.8798C9.67992 5.0398 9.67992 5.2798 9.83992 5.43981L11.0399 6.6398ZM14.7999 3.9998C14.8799 4.1598 15.0399 4.2398 15.1999 4.2398C15.2799 4.2398 15.2799 4.2398 15.3599 4.2398C15.5999 4.1598 15.6799 3.9198 15.5999 3.6798L14.9599 2.0798C14.8799 1.8398 14.6399 1.7598 14.3999 1.8398C14.1599 1.9198 14.0799 2.1598 14.1599 2.3998L14.7999 3.9998ZM23.9999 4.1598C24.0799 4.1598 24.0799 4.1598 24.1599 4.1598C24.3199 4.1598 24.4799 4.0798 24.5599 3.9198L25.1999 2.3198C25.2799 2.0798 25.1999 1.9198 24.9599 1.7598C24.7199 1.6798 24.5599 1.7598 24.3999 1.9998L23.7599 3.5998C23.7599 3.8398 23.8399 4.0798 23.9999 4.1598Z" fill="#666666"/>
</svg>
