<svg width="24" height="24" viewBox="0 0 24 24" fill="none" xmlns="http://www.w3.org/2000/svg">
<path d="M17.14 2H6.85999C4.17999 2 2 4.18 2 6.86V17.14C2 19.82 4.17999 22 6.85999 22H17.14C19.82 22 22 19.82 22 17.14V6.86C22 4.18 19.82 2 17.14 2ZM8.92001 9.17C8.36001 9.17 7.89001 8.71 7.89001 8.15C7.89001 7.58 8.35 7.12 8.91 7.12H8.92001C9.49001 7.12 9.95001 7.58 9.95001 8.15C9.95001 8.71 9.49001 9.17 8.92001 9.17ZM9.64999 10.72V15.85C9.64999 16.27 9.31999 16.6 8.89999 16.6C8.48999 16.6 8.14999 16.27 8.14999 15.85V10.72C8.14999 10.3 8.48999 9.97 8.89999 9.97C9.31999 9.97 9.64999 10.3 9.64999 10.72ZM15.85 15.85C15.85 16.27 15.51 16.6 15.1 16.6C14.68 16.6 14.35 16.27 14.35 15.85V13.51C14.35 12.88 14.22 12.77 14.12 12.68C14 12.57 13.79 12.5 13.53 12.49C13.32 12.5 13.11 12.57 12.99 12.68C12.89 12.77 12.76 12.88 12.76 13.51V15.85C12.76 16.27 12.43 16.6 12.01 16.6C11.6 16.6 11.26 16.27 11.26 15.85V13.51C11.26 12.6 11.48 12.02 11.99 11.56C12.38 11.21 12.91 11.02 13.53 10.99C14.2 11.02 14.73 11.21 15.13 11.56C15.63 12.02 15.85 12.6 15.85 13.51V15.85Z" fill="white"/>
</svg>
