<svg width="40" height="40" viewBox="0 0 40 40" fill="none" xmlns="http://www.w3.org/2000/svg">
<rect x="0.5" y="0.5" width="39" height="39" rx="19.5" stroke="#DCDCDC"/>
<path d="M23.633 27.1666C22.8797 27.1666 22.0863 26.9866 21.2663 26.6399C20.4663 26.2999 19.6597 25.8333 18.873 25.2666C18.093 24.6933 17.3397 24.0533 16.6263 23.3533C15.9197 22.6399 15.2797 21.8866 14.713 21.1133C14.1397 20.3133 13.6797 19.5133 13.353 18.7399C13.0063 17.9133 12.833 17.1133 12.833 16.3599C12.833 15.8399 12.9263 15.3466 13.1063 14.8866C13.293 14.4133 13.593 13.9733 13.9997 13.5933C14.513 13.0866 15.0997 12.8333 15.7263 12.8333C15.9863 12.8333 16.253 12.8933 16.4797 12.9999C16.7397 13.1199 16.9597 13.2999 17.1197 13.5399L18.6663 15.7199C18.8063 15.9133 18.913 16.0999 18.9863 16.2866C19.073 16.4866 19.1197 16.6866 19.1197 16.8799C19.1197 17.1333 19.0463 17.3799 18.9063 17.6133C18.8063 17.7933 18.653 17.9866 18.4597 18.1799L18.0063 18.6533C18.013 18.6733 18.0197 18.6866 18.0263 18.6999C18.1063 18.8399 18.2663 19.0799 18.573 19.4399C18.8997 19.8133 19.2063 20.1533 19.513 20.4666C19.9063 20.8533 20.233 21.1599 20.5397 21.4133C20.9197 21.7333 21.1663 21.8933 21.313 21.9666L21.2997 21.9999L21.7863 21.5199C21.993 21.3133 22.193 21.1599 22.3863 21.0599C22.753 20.8333 23.2197 20.7933 23.6863 20.9866C23.8597 21.0599 24.0463 21.1599 24.2463 21.2999L26.4597 22.8733C26.7063 23.0399 26.8863 23.2533 26.993 23.5066C27.093 23.7599 27.1397 23.9933 27.1397 24.2266C27.1397 24.5466 27.0663 24.8666 26.9263 25.1666C26.7863 25.4666 26.613 25.7266 26.393 25.9666C26.013 26.3866 25.5997 26.6866 25.1197 26.8799C24.6597 27.0666 24.1597 27.1666 23.633 27.1666ZM15.7263 13.8333C15.3597 13.8333 15.0197 13.9933 14.693 14.3133C14.3863 14.5999 14.173 14.9133 14.0397 15.2533C13.8997 15.5999 13.833 15.9666 13.833 16.3599C13.833 16.9799 13.9797 17.6533 14.273 18.3466C14.573 19.0533 14.993 19.7866 15.5263 20.5199C16.0597 21.2533 16.6663 21.9666 17.333 22.6399C17.9997 23.2999 18.7197 23.9133 19.4597 24.4533C20.1797 24.9799 20.9197 25.4066 21.653 25.7133C22.793 26.1999 23.8597 26.3133 24.7397 25.9466C25.0797 25.8066 25.3797 25.5933 25.653 25.2866C25.8063 25.1199 25.9263 24.9399 26.0263 24.7266C26.1063 24.5599 26.1463 24.3866 26.1463 24.2133C26.1463 24.1066 26.1263 23.9999 26.073 23.8799C26.053 23.8399 26.013 23.7666 25.8863 23.6799L23.673 22.1066C23.5397 22.0133 23.4197 21.9466 23.3063 21.8999C23.1597 21.8399 23.0997 21.7799 22.873 21.9199C22.7397 21.9866 22.6197 22.0866 22.4863 22.2199L21.9797 22.7199C21.7197 22.9733 21.3197 23.0333 21.013 22.9199L20.833 22.8399C20.5597 22.6933 20.2397 22.4666 19.8863 22.1666C19.5663 21.8933 19.2197 21.5733 18.7997 21.1599C18.473 20.8266 18.1463 20.4733 17.8063 20.0799C17.493 19.7133 17.2663 19.3999 17.1263 19.1399L17.0463 18.9399C17.0063 18.7866 16.993 18.6999 16.993 18.6066C16.993 18.3666 17.0797 18.1533 17.2463 17.9866L17.7463 17.4666C17.8797 17.3333 17.9797 17.2066 18.0463 17.0933C18.0997 17.0066 18.1197 16.9333 18.1197 16.8666C18.1197 16.8133 18.0997 16.7333 18.0663 16.6533C18.0197 16.5466 17.9463 16.4266 17.853 16.2999L16.3063 14.1133C16.2397 14.0199 16.1597 13.9533 16.0597 13.9066C15.953 13.8599 15.8397 13.8333 15.7263 13.8333ZM21.2997 22.0066L21.193 22.4599L21.373 21.9933C21.3397 21.9866 21.313 21.9933 21.2997 22.0066Z" fill="black"/>
</svg>
