<svg width="20" height="20" viewBox="0 0 20 20" fill="none" xmlns="http://www.w3.org/2000/svg">
<path d="M17.4883 3.68144C17.4698 3.3767 17.3403 3.08927 17.1245 2.87338C16.9086 2.6575 16.6211 2.52809 16.3164 2.50957C15.3336 2.45097 12.8219 2.54082 10.7375 4.62441L10.3664 5.00019H5.80937C5.64459 4.99926 5.48126 5.03111 5.3289 5.09388C5.17654 5.15665 5.03818 5.24909 4.92187 5.36582L2.24218 8.04707C2.07784 8.21129 1.96253 8.41807 1.90917 8.64419C1.85582 8.87031 1.86654 9.10682 1.94013 9.32719C2.01372 9.54756 2.14727 9.74305 2.32579 9.89174C2.50431 10.0404 2.72073 10.1364 2.95077 10.1689L5.95624 10.5885L9.41015 14.0424L9.82968 17.0494C9.86194 17.2795 9.95791 17.4959 10.1067 17.6743C10.2556 17.8526 10.4513 17.9858 10.6719 18.0588C10.8003 18.1017 10.9349 18.1236 11.0703 18.1236C11.2343 18.1239 11.3967 18.0918 11.5483 18.029C11.6998 17.9663 11.8374 17.8742 11.9531 17.758L14.6344 15.0783C14.7511 14.962 14.8435 14.8236 14.9063 14.6713C14.9691 14.5189 15.0009 14.3556 15 14.1908V9.63378L15.3726 9.26113C17.457 7.17675 17.5469 4.66503 17.4883 3.68144ZM5.80937 6.25019H9.1164L6.02812 9.33769L3.12499 8.933L5.80937 6.25019ZM11.6226 5.51191C12.2232 4.90764 12.9458 4.43848 13.7422 4.13575C14.5385 3.83303 15.3903 3.70371 16.2406 3.75644C16.2954 4.60721 16.1674 5.45984 15.8653 6.25704C15.5632 7.05424 15.0939 7.77753 14.4891 8.37832L9.99999 12.8658L7.13437 10.0002L11.6226 5.51191ZM13.75 14.1908L11.068 16.8752L10.6625 13.9713L13.75 10.8838V14.1908ZM7.95624 14.933C7.60468 15.7033 6.4289 17.5002 3.12499 17.5002C2.95923 17.5002 2.80026 17.4343 2.68305 17.3171C2.56584 17.1999 2.49999 17.041 2.49999 16.8752C2.49999 13.5713 4.29687 12.3955 5.06718 12.0432C5.14187 12.0091 5.22254 11.9901 5.30458 11.9872C5.38661 11.9843 5.46842 11.9976 5.54532 12.0263C5.62221 12.0551 5.6927 12.0987 5.75275 12.1546C5.8128 12.2106 5.86124 12.2778 5.89531 12.3525C5.92937 12.4272 5.94838 12.5079 5.95127 12.5899C5.95416 12.672 5.94086 12.7538 5.91213 12.8307C5.8834 12.9076 5.83981 12.9781 5.78384 13.0381C5.72787 13.0982 5.66062 13.1466 5.58593 13.1807C5.08359 13.4096 3.97499 14.1463 3.77968 16.2205C5.8539 16.0252 6.59218 14.9166 6.81952 14.4143C6.85359 14.3396 6.90203 14.2723 6.96208 14.2163C7.02213 14.1604 7.09261 14.1168 7.16951 14.0881C7.24641 14.0593 7.32822 14.046 7.41025 14.0489C7.49229 14.0518 7.57296 14.0708 7.64765 14.1049C7.72234 14.1389 7.78959 14.1874 7.84556 14.2474C7.90153 14.3075 7.94512 14.378 7.97385 14.4549C8.00257 14.5318 8.01588 14.6136 8.01299 14.6956C8.0101 14.7776 7.99109 14.8583 7.95702 14.933H7.95624Z" fill="white"/>
</svg>
