<svg width="20" height="20" viewBox="0 0 20 20" fill="none" xmlns="http://www.w3.org/2000/svg">
<path d="M2.79406 7.45869C3.33698 5.14417 5.14417 3.33698 7.45869 2.79406C9.13021 2.40198 10.8698 2.40198 12.5413 2.79406C14.8558 3.33698 16.663 5.14417 17.2059 7.4587C17.598 9.13021 17.598 10.8698 17.2059 12.5413C16.663 14.8558 14.8558 16.663 12.5413 17.2059C10.8698 17.598 9.13021 17.598 7.4587 17.2059C5.14418 16.663 3.33698 14.8558 2.79406 12.5413C2.40198 10.8698 2.40198 9.13021 2.79406 7.45869Z" stroke="#181818" stroke-width="1.5"/>
<path d="M8.48515 9.41363C8.65455 8.99012 8.99012 8.65455 9.41363 8.48515L11.1117 7.80591C11.792 7.53381 12.4671 8.20887 12.1949 8.88913L11.5157 10.5872C11.3463 11.0107 11.0107 11.3463 10.5872 11.5157L8.88913 12.1949C8.20887 12.4671 7.53381 11.792 7.80591 11.1117L8.48515 9.41363Z" stroke="#181818" stroke-width="1.5" stroke-linecap="round" stroke-linejoin="round"/>
</svg>
