<svg width="28" height="28" viewBox="0 0 28 28" fill="none" xmlns="http://www.w3.org/2000/svg">
<path d="M16.3333 9.33366C16.3333 8.68933 15.811 8.16699 15.1667 8.16699C14.5223 8.16699 14 8.68933 14 9.33366C14 12.0269 13.404 13.6998 12.3851 14.7188C11.3662 15.7377 9.69323 16.3337 7 16.3337C6.35566 16.3337 5.83333 16.856 5.83333 17.5003C5.83333 18.1447 6.35566 18.667 7 18.667C9.69323 18.667 11.3662 19.2629 12.3851 20.2819C13.404 21.3008 14 22.9738 14 25.667C14 26.3113 14.5223 26.8337 15.1667 26.8337C15.811 26.8337 16.3333 26.3113 16.3333 25.667C16.3333 22.9738 16.9293 21.3008 17.9482 20.2819C18.9672 19.2629 20.6401 18.667 23.3333 18.667C23.9777 18.667 24.5 18.1447 24.5 17.5003C24.5 16.856 23.9777 16.3337 23.3333 16.3337C20.6401 16.3337 18.9672 15.7377 17.9482 14.7188C16.9293 13.6998 16.3333 12.0269 16.3333 9.33366Z" fill="#FF4B0E"/>
<path d="M7 6.41699C7 6.09483 6.73883 5.83366 6.41666 5.83366C6.0945 5.83366 5.83333 6.09483 5.83333 6.41699C5.83333 7.56106 5.57992 8.2517 5.16564 8.66597C4.75137 9.08025 4.06073 9.33366 2.91666 9.33366C2.5945 9.33366 2.33333 9.59483 2.33333 9.91699C2.33333 10.2392 2.5945 10.5003 2.91666 10.5003C4.06073 10.5003 4.75137 10.7537 5.16564 11.168C5.57992 11.5823 5.83333 12.2729 5.83333 13.417C5.83333 13.7392 6.0945 14.0003 6.41666 14.0003C6.73883 14.0003 7 13.7392 7 13.417C7 12.2729 7.25341 11.5823 7.66768 11.168C8.08196 10.7537 8.77259 10.5003 9.91666 10.5003C10.2388 10.5003 10.5 10.2392 10.5 9.91699C10.5 9.59483 10.2388 9.33366 9.91666 9.33366C8.77259 9.33366 8.08196 9.08025 7.66768 8.66597C7.25341 8.2517 7 7.56106 7 6.41699Z" fill="#FF4B0E"/>
<path d="M12.8333 1.75033C12.8333 1.42816 12.5722 1.16699 12.25 1.16699C11.9278 1.16699 11.6667 1.42816 11.6667 1.75033C11.6667 2.4893 11.5024 2.88827 11.2785 3.11215C11.0546 3.33603 10.6556 3.50033 9.91666 3.50033C9.5945 3.50033 9.33333 3.76149 9.33333 4.08366C9.33333 4.40583 9.5945 4.66699 9.91666 4.66699C10.6556 4.66699 11.0546 4.83128 11.2785 5.05517C11.5024 5.27905 11.6667 5.67802 11.6667 6.41699C11.6667 6.73916 11.9278 7.00033 12.25 7.00033C12.5722 7.00033 12.8333 6.73916 12.8333 6.41699C12.8333 5.67802 12.9976 5.27905 13.2215 5.05517C13.4454 4.83128 13.8444 4.66699 14.5833 4.66699C14.9055 4.66699 15.1667 4.40583 15.1667 4.08366C15.1667 3.76149 14.9055 3.50033 14.5833 3.50033C13.8444 3.50033 13.4454 3.33603 13.2215 3.11215C12.9976 2.88827 12.8333 2.4893 12.8333 1.75033Z" fill="#FF4B0E"/>
</svg>
